<?xml version="1.0" encoding="UTF-8"?>
<svg id="Capa_1" data-name="Capa 1" xmlns="http://www.w3.org/2000/svg" viewBox="0 0 141.73 141.73">
  <defs>
    <style>
      .cls-1 {
        fill: #e6ebff;
      }

      .cls-2 {
        fill: #ff8aff;
      }

      .cls-3 {
        fill: #fec128;
      }
    </style>
  </defs>
  <path class="cls-1" d="m13.09,67.44c-4.1-1.87-7.28-4.57-9.54-8.11-2.26-3.53-3.39-7.72-3.39-12.58s1.11-8.86,3.34-12.39c2.23-3.53,5.41-6.27,9.54-8.2,4.13-1.93,8.91-2.9,14.34-2.9s10.19.97,14.29,2.9c4.1,1.93,7.28,4.67,9.54,8.2,2.26,3.53,3.39,7.66,3.39,12.39s-1.13,9.04-3.39,12.58c-2.26,3.53-5.44,6.23-9.54,8.11-4.1,1.87-8.86,2.81-14.29,2.81s-10.19-.94-14.29-2.81Zm24.94-10.32c2.65-2.67,3.97-6.13,3.97-10.36,0-4.48-1.31-8-3.92-10.55-2.62-2.55-6.18-3.82-10.7-3.82s-8.09,1.28-10.7,3.82c-2.62,2.55-3.92,6.07-3.92,10.55,0,4.24,1.32,7.69,3.97,10.36,2.65,2.67,6.2,4.01,10.66,4.01s8.01-1.34,10.66-4.01Z"/>
  <path class="cls-3" d="m97.56,67.3c-3.81-2.99-5.71-7.03-5.71-12.09s1.8-9.38,5.4-12.34c3.6-2.96,8.65-4.44,15.16-4.44s11.73,1.22,16.3,3.65v-1.28c0-3.36-1.09-5.79-3.27-7.31-2.18-1.51-5.69-2.27-10.54-2.27-3.05,0-6.06.28-9.03.84-2.98.56-5.61,1.33-7.89,2.32v-9.77c2.08-.92,4.86-1.68,8.36-2.27,3.49-.59,6.87-.89,10.12-.89,8.65,0,15.05,1.76,19.21,5.28,4.15,3.52,6.23,8.41,6.23,14.66v30.32h-12.16l-.19-6.03c-2.15,1.97-4.59,3.49-7.32,4.54-2.73,1.05-6.07,1.58-10.02,1.58-5.95,0-10.83-1.5-14.64-4.49Zm25.74-6.22c2.35-1.09,4.15-2.58,5.4-4.49v-5.23c-3.81-2.57-8.17-3.85-13.08-3.85-6.99,0-10.48,2.57-10.48,7.7,0,2.5.88,4.38,2.65,5.63,1.76,1.25,4.31,1.88,7.63,1.88,2.91,0,5.54-.54,7.89-1.63Z"/>
  <path class="cls-2" d="m73.09,93.97c-.17,0-.33,0-.5,0-5.96-.2-11.07-4.19-13.33-10.42-.54-1.5-.96-3.1-1.23-4.76-2.01-12.3,2.49-24.55,5.35-30.76.58-1.27,1.21-2.52,1.88-3.76-2.74-4.72-5.77-9.2-9.04-13.37l9.1-6.46c2.37,3.02,4.61,6.18,6.73,9.46,2.79-3.57,5.93-6.94,9.35-10.04l7.81,7.84c-4.26,3.84-7.98,8.16-11.03,12.78.3.58.6,1.16.89,1.74.65,1.3,1.35,2.62,2.05,3.94,3.26,6.17,6.95,13.16,7.33,20.82.26,5.25-.36,9.73-1.84,13.31-2.53,6.1-7.56,9.69-13.51,9.69Zm-1.16-37.15c-2.01,5.46-3.88,13.01-2.69,20.3.17,1.03.42,2.01.74,2.9.19.52,1.22,3.1,3,3.16.02,0,.05,0,.07,0,1.56,0,2.54-1.78,2.98-2.86.86-2.09,1.24-5.23,1.06-8.84-.24-4.8-2.54-9.62-5.17-14.66Z"/>
  <path class="cls-1" d="m75.25,128.17c-1.02,0-2.04-.02-3.05-.06-19.89-.75-39.33-8.9-53.33-22.36l6.92-6.51c12.29,11.81,29.35,18.96,46.8,19.62,17.44.67,35.06-5.18,48.29-16.02l6.35,7.01c-14.31,11.72-33.1,18.31-51.97,18.31Z"/>
</svg>