<?xml version="1.0" encoding="utf-8"?>
<!-- Generator: Adobe Illustrator 27.2.0, SVG Export Plug-In . SVG Version: 6.00 Build 0)  -->
<svg version="1.1" id="Capa_1" xmlns="http://www.w3.org/2000/svg" xmlns:xlink="http://www.w3.org/1999/xlink" x="0px" y="0px"
	 viewBox="0 0 141.7 141.7" style="enable-background:new 0 0 141.7 141.7;" xml:space="preserve">
<style type="text/css">
	.st0{fill:#E6EBFF;}
	.st1{fill:#FEC128;}
	.st2{fill:#FF8AFF;}
</style>
<polygon points="70.9,0 82.4,37.2 114.7,13.5 101,50 141.7,49 108.1,70.9 141.7,92.8 101,91.7 114.7,128.2 82.4,104.6 70.9,141.7 
	59.3,104.6 27.1,128.2 40.7,91.7 0,92.8 33.6,70.9 0,49 40.7,50 27.1,13.5 59.3,37.2 "/>
<g>
	<path class="st0" d="M50.2,72.2c-1.5-0.7-2.6-1.7-3.4-2.9c-0.8-1.3-1.2-2.8-1.2-4.5s0.4-3.2,1.2-4.5s2-2.3,3.4-3
		c1.5-0.7,3.2-1,5.2-1s3.7,0.3,5.2,1s2.6,1.7,3.4,3c0.8,1.3,1.2,2.8,1.2,4.5c0,1.7-0.4,3.3-1.2,4.5c-0.8,1.3-2,2.2-3.4,2.9
		s-3.2,1-5.2,1S51.6,72.8,50.2,72.2L50.2,72.2z M59.1,68.4c1-1,1.4-2.2,1.4-3.7c0-1.6-0.5-2.9-1.4-3.8s-2.2-1.4-3.8-1.4
		s-2.9,0.5-3.8,1.4c-0.9,0.9-1.4,2.2-1.4,3.8c0,1.5,0.5,2.8,1.4,3.7c1,1,2.2,1.4,3.8,1.4S58.2,69.4,59.1,68.4L59.1,68.4z"/>
	<path class="st1" d="M80.6,72.1c-1.4-1.1-2.1-2.5-2.1-4.4s0.7-3.4,1.9-4.4c1.3-1.1,3.1-1.6,5.5-1.6s4.2,0.4,5.9,1.3v-0.5
		c0-1.2-0.4-2.1-1.2-2.6c-0.8-0.5-2.1-0.8-3.8-0.8c-1.1,0-2.2,0.1-3.2,0.3s-2,0.5-2.8,0.8v-3.5c0.8-0.3,1.8-0.6,3-0.8
		c1.3-0.2,2.5-0.3,3.6-0.3c3.1,0,5.4,0.6,6.9,1.9s2.2,3,2.2,5.3v10.9h-4.4l-0.1-2.2c-0.8,0.7-1.7,1.3-2.6,1.6
		c-1,0.4-2.2,0.6-3.6,0.6C83.7,73.7,81.9,73.2,80.6,72.1L80.6,72.1z M89.9,69.9c0.8-0.4,1.5-0.9,1.9-1.6v-1.9
		c-1.4-0.9-2.9-1.4-4.7-1.4c-2.5,0-3.8,0.9-3.8,2.8c0,0.9,0.3,1.6,0.9,2c0.6,0.4,1.6,0.7,2.8,0.7C88.1,70.4,89,70.2,89.9,69.9
		L89.9,69.9z"/>
	<path class="st2" d="M71.8,81.7c-0.1,0-0.1,0-0.2,0c-2.2-0.1-4-1.5-4.8-3.8c-0.2-0.5-0.3-1.1-0.4-1.7c-0.7-4.4,0.9-8.8,1.9-11.1
		c0.2-0.5,0.4-0.9,0.7-1.4c-1-1.7-2.1-3.3-3.2-4.8l3.3-2.3c0.8,1.1,1.7,2.2,2.4,3.4c1-1.3,2.1-2.5,3.4-3.6l2.8,2.8
		c-1.5,1.4-2.9,2.9-4,4.6c0.1,0.2,0.2,0.4,0.3,0.6c0.2,0.5,0.5,0.9,0.7,1.4c1.2,2.2,2.5,4.7,2.6,7.5c0.1,1.9-0.1,3.5-0.7,4.8
		C75.7,80.4,73.9,81.7,71.8,81.7L71.8,81.7z M71.3,68.3c-0.7,2-1.4,4.7-1,7.3c0.1,0.4,0.2,0.7,0.3,1c0.1,0.2,0.4,1.1,1.1,1.1h0
		c0.6,0,0.9-0.6,1.1-1c0.3-0.8,0.4-1.9,0.4-3.2C73.1,71.9,72.3,70.2,71.3,68.3L71.3,68.3z"/>
	<path class="st0" d="M72.5,94c-0.4,0-0.7,0-1.1,0c-7.2-0.3-14.2-3.2-19.2-8.1l2.5-2.3c4.4,4.2,10.6,6.8,16.8,7.1s12.6-1.9,17.4-5.8
		l2.3,2.5C86.1,91.7,79.3,94,72.5,94L72.5,94z"/>
</g>
</svg>
