<svg xmlns="http://www.w3.org/2000/svg" xmlns:xlink="http://www.w3.org/1999/xlink" viewBox="0,0,256,256" width="28px" height="28px" fill-rule="nonzero"><g fill="#ff8aff" fill-rule="nonzero" stroke="none" stroke-width="1" stroke-linecap="butt" stroke-linejoin="miter" stroke-miterlimit="10" stroke-dasharray="" stroke-dashoffset="0" font-family="none" font-weight="none" font-size="none" text-anchor="none" style="mix-blend-mode: normal"><g transform="scale(5.12,5.12)"><path d="M11.31641,3.00781c-0.60937,0.03906 -1.26562,0.25781 -1.89062,0.69531c-0.06641,0.04297 -6.50781,4.71094 -6.42578,7.33203c0.23828,7.48438 7.52344,16.29297 13.59375,22.36719c6.07031,6.06641 14.875,13.35156 22.39063,13.59766h0.04688c2.60156,0 7.21094,-6.36328 7.25391,-6.42578c0.52344,-0.74609 0.77344,-1.60156 0.69922,-2.41016c-0.07031,-0.80078 -0.4375,-1.48828 -1.00781,-1.88672c-0.67969,-0.47656 -8.05859,-5.38281 -8.95703,-5.93359c-0.87891,-0.53906 -2.16797,-0.45312 -3.44922,0.22266c-0.72266,0.38281 -2.93359,1.64063 -3.96484,2.23047c-0.91016,-0.63672 -3.12891,-2.32422 -6.60547,-5.80078c-3.48047,-3.47656 -5.16797,-5.69922 -5.80078,-6.60547c0.58984,-1.03125 1.84766,-3.24219 2.22656,-3.96484c0.6875,-1.30078 0.76953,-2.60156 0.21484,-3.46875c-0.52734,-0.83984 -5.41016,-8.23828 -5.92578,-8.95312c-0.47656,-0.66016 -1.37891,-1.07031 -2.39844,-0.99609zM25,5v2c9.92578,0 18,8.07422 18,18h2c0,-11.02734 -8.97266,-20 -20,-20zM25,10.54297v2c6.87109,0 12.45703,5.58984 12.45703,12.45703h2c0,-7.97266 -6.48437,-14.45703 -14.45703,-14.45703zM25,16v2c3.85938,0 7,3.14063 7,7h2c0,-4.96484 -4.03906,-9 -9,-9z"></path></g></g></svg>